# xmcd CD database file
#
# Track frame offsets:
#	150
#	19680
#	38015
#	59700
#	91140
#	111730
#	132790
#	154205
#	168790
#	185165
#	209530
#	223775
#	240170
#	254857
#
# Disc length: 3608 seconds
#
# Revision: 5
# Processed by: cddbd v1.5.1PL2 Copyright (c) Steve Scherf et al.
# Submitted via: CDex 1.40Release
#
DISCID=ce0e160e
DTITLE=Willie Nelson - Across The Borderline
DYEAR=1993
DGENRE=Country
TTITLE0=American Tune
TTITLE1=Getting Over You
TTITLE2=(The) Most Unoriginal Sin
TTITLE3=Don't Give Up
TTITLE4=Heartland
TTITLE5=Across The Borderline
TTITLE6=Graceland
TTITLE7=Farther Down The Line
TTITLE8=Valentine
TTITLE9=What Was It You Wanted
TTITLE10=I Love The Life I Live
TTITLE11=If I Were The Man You Wanted
TTITLE12=She's Not For You
TTITLE13=Still Is Still Moving To Me
EXTD=YEAR: 1993 ID3G: 2
EXTT0=
EXTT1=
EXTT2=
EXTT3=
EXTT4=
EXTT5=
EXTT6=
EXTT7=
EXTT8=
EXTT9=
EXTT10=
EXTT11=
EXTT12=
EXTT13=
PLAYORDER=
